<svg xmlns="http://www.w3.org/2000/svg" width="244.787" height="81" viewBox="0 0 244.787 81">
  <g id="iStart_Logo_white" data-name="iStart Logo_white" transform="translate(-0.008 0)">
    <g id="Layer_1" data-name="Layer 1" transform="translate(0.008 0)">
      <path id="Path_254" data-name="Path 254" d="M108.9,37a15.3,15.3,0,0,0-3.937-2.677,10.873,10.873,0,0,0-4.769-1.087,8.377,8.377,0,0,0-3.558.75,2.652,2.652,0,0,0-1.647,2.595,2.578,2.578,0,0,0,1.8,2.471A39.665,39.665,0,0,0,102.6,40.7a31.507,31.507,0,0,1,4.736,1.417,16.836,16.836,0,0,1,4.308,2.471,11.631,11.631,0,0,1,3.1,3.682,10.832,10.832,0,0,1,1.178,5.264,12.479,12.479,0,0,1-5.766,11.046,17.85,17.85,0,0,1-5.766,2.43,27.562,27.562,0,0,1-6.367.758,31.45,31.45,0,0,1-10-1.647A20.881,20.881,0,0,1,79.86,61.31l7.7-8.122a15.387,15.387,0,0,0,4.522,3.344,12.5,12.5,0,0,0,5.692,1.343,7.546,7.546,0,0,0,3.295-.824,2.867,2.867,0,0,0,1.647-2.809,3.023,3.023,0,0,0-2.01-2.85,36.42,36.42,0,0,0-6.285-1.919,32.534,32.534,0,0,1-4.349-1.343,13.772,13.772,0,0,1-3.9-2.265,11.112,11.112,0,0,1-2.8-3.509,10.8,10.8,0,0,1-1.087-5.025,12.183,12.183,0,0,1,1.59-6.409A13.41,13.41,0,0,1,88,26.615a17.99,17.99,0,0,1,5.568-2.471,24.143,24.143,0,0,1,6.063-.824,29.5,29.5,0,0,1,9.176,1.466,19.827,19.827,0,0,1,7.57,4.4Z" transform="translate(-14.084 -4.111)"/>
      <path id="Path_255" data-name="Path 255" d="M134.32,23.052V12.08H147.8V23.052H157.6V33.266H147.8V49.23a7.2,7.2,0,0,0,1.129,4.415q1.137,1.466,4.061,1.474a14.111,14.111,0,0,0,2.133-.173,7.175,7.175,0,0,0,1.886-.494l.165,10.041a22.774,22.774,0,0,1-3.6.881,25.849,25.849,0,0,1-4.349.379,20.444,20.444,0,0,1-7.035-1.021,10.782,10.782,0,0,1-4.563-3.023,11.779,11.779,0,0,1-2.471-4.7,22.858,22.858,0,0,1-.75-6.087V33.266Z" transform="translate(-23.684 -2.129)"/>
      <path id="Path_256" data-name="Path 256" d="M173.238,30.713a24.052,24.052,0,0,1,8.583-5.272,29.325,29.325,0,0,1,10.008-1.763,26.771,26.771,0,0,1,8.921,1.3,13.254,13.254,0,0,1,5.9,4.02,17.167,17.167,0,0,1,3.295,6.862,40.905,40.905,0,0,1,1.046,9.835V66.718H198.444v-4.44h-.214a10.346,10.346,0,0,1-4.819,4.02,17.15,17.15,0,0,1-6.993,1.425,21.087,21.087,0,0,1-5.189-.675,15.075,15.075,0,0,1-4.893-2.175,11.788,11.788,0,0,1-3.641-4.02,12.413,12.413,0,0,1-1.417-6.194,10.535,10.535,0,0,1,2.471-7.282,16.211,16.211,0,0,1,6.359-4.275,33.492,33.492,0,0,1,8.666-2,88,88,0,0,1,9.292-.511v-.667a5.124,5.124,0,0,0-2.175-4.563,9.415,9.415,0,0,0-5.362-1.466,13.3,13.3,0,0,0-5.651,1.261,17.8,17.8,0,0,0-4.645,3.014Zm25.206,17.834h-1.754c-1.507,0-3.031.074-4.563.214a18.409,18.409,0,0,0-4.119.824,7.5,7.5,0,0,0-2.957,1.689,3.921,3.921,0,0,0-1.178,2.965,3.534,3.534,0,0,0,.552,2.01,4.119,4.119,0,0,0,1.376,1.343,6.029,6.029,0,0,0,1.927.708,11.07,11.07,0,0,0,2.092.214,8.476,8.476,0,0,0,6.409-2.306,8.616,8.616,0,0,0,2.216-6.236Z" transform="translate(-30.197 -4.172)"/>
      <path id="Path_257" data-name="Path 257" d="M254.779,36.379a14.728,14.728,0,0,0-2.092-.338c-.585-.049-1.161-.082-1.713-.082a9.885,9.885,0,0,0-4.654,1,9.49,9.49,0,0,0-3.007,2.413,9.21,9.21,0,0,0-1.647,3.1,10.51,10.51,0,0,0-.5,2.916V66.815H227.44V25.127h13.229v6.03h.173a13.476,13.476,0,0,1,4.522-5.231,11.614,11.614,0,0,1,6.779-2.026,14.994,14.994,0,0,1,1.65.091,3.237,3.237,0,0,1,1,.247Z" transform="translate(-40.099 -4.212)"/>
      <path id="Path_258" data-name="Path 258" d="M268.92,22.955V12H282.4V22.955H292.2V33.17H282.4V49.142a7.133,7.133,0,0,0,1.128,4.407q1.12,1.474,4.061,1.474a15.2,15.2,0,0,0,2.133-.165,7.585,7.585,0,0,0,1.886-.5l.165,10.041a21.9,21.9,0,0,1-3.6.881,25.876,25.876,0,0,1-4.357.379,20.511,20.511,0,0,1-7.035-1.054,10.865,10.865,0,0,1-4.555-3.015,11.87,11.87,0,0,1-2.471-4.7,22.841,22.841,0,0,1-.774-6.087V33.17Z" transform="translate(-47.411 -2.115)"/>
      <path id="Path_259" data-name="Path 259" d="M40.947,7.537a7.232,7.232,0,0,1-.626,2.974,7.693,7.693,0,0,1-1.647,2.381,7.479,7.479,0,0,1-2.471,1.59,8.04,8.04,0,0,1-3.056.585,7.677,7.677,0,0,1-5.61-2.216A7.166,7.166,0,0,1,25.28,7.537a7.257,7.257,0,0,1,.585-2.891,6.853,6.853,0,0,1,1.647-2.389A9.168,9.168,0,0,1,29.992.626,7.6,7.6,0,0,1,33.072,0a8.237,8.237,0,0,1,3.056.585A7.743,7.743,0,0,1,38.6,2.175a7.628,7.628,0,0,1,1.647,2.389A7.208,7.208,0,0,1,40.947,7.537Z" transform="translate(-4.463 0)" fill="#d22030"/>
      <path id="Path_260" data-name="Path 260" d="M41.665,31.53V44.454a18.262,18.262,0,1,1-26.087.708V31.917a28.962,28.962,0,1,0,26.087-.354Z" transform="translate(-0.008 -5.558)"/>
      <rect id="Rectangle_1529" data-name="Rectangle 1529" width="13.731" height="41.697" transform="translate(21.748 20.849)"/>
    </g>
  </g>
</svg>
