<svg xmlns="http://www.w3.org/2000/svg" viewBox="0 0 297.18 98.3"><defs><style>.cls-1{fill:#fff;}</style></defs><title>Asset 3</title><g id="Layer_2" data-name="Layer 2"><g id="Layer_1-2" data-name="Layer 1"><path class="cls-1" d="M115.11,39.93a18.57,18.57,0,0,0-4.78-3.25,13.2,13.2,0,0,0-5.79-1.32,10.17,10.17,0,0,0-4.32.91,3.22,3.22,0,0,0-2,3.15,3.13,3.13,0,0,0,2.19,3,48.15,48.15,0,0,0,7.06,2,38.25,38.25,0,0,1,5.75,1.72,20.44,20.44,0,0,1,5.23,3,14.12,14.12,0,0,1,3.76,4.47A13.15,13.15,0,0,1,123.64,60a15.15,15.15,0,0,1-7,13.41,21.67,21.67,0,0,1-7,2.95,33.46,33.46,0,0,1-7.73.92,38.18,38.18,0,0,1-12.14-2,25.35,25.35,0,0,1-9.91-5.84l9.35-9.86a18.68,18.68,0,0,0,5.49,4.06,15.17,15.17,0,0,0,6.91,1.63,9.16,9.16,0,0,0,4-1,3.48,3.48,0,0,0,2-3.41,3.67,3.67,0,0,0-2.44-3.46,44.21,44.21,0,0,0-7.63-2.33,39.5,39.5,0,0,1-5.28-1.63,16.72,16.72,0,0,1-4.73-2.75,13.49,13.49,0,0,1-3.4-4.26,13.11,13.11,0,0,1-1.32-6.1,14.79,14.79,0,0,1,1.93-7.78,16.28,16.28,0,0,1,5-5.23,21.84,21.84,0,0,1,6.76-3,29.31,29.31,0,0,1,7.36-1,35.81,35.81,0,0,1,11.14,1.78,24.07,24.07,0,0,1,9.19,5.34Z"/><path class="cls-1" d="M134.32,25.4V12.08h16.37V25.4h11.89V37.8H150.69V57.18a8.74,8.74,0,0,0,1.37,5.36q1.38,1.78,4.93,1.79a17.13,17.13,0,0,0,2.59-.21,8.71,8.71,0,0,0,2.29-.6l.2,12.19a27.65,27.65,0,0,1-4.37,1.07,31.38,31.38,0,0,1-5.28.46A24.82,24.82,0,0,1,143.88,76a13.09,13.09,0,0,1-5.54-3.67,14.3,14.3,0,0,1-3-5.7,27.75,27.75,0,0,1-.91-7.39V37.8Z"/><path class="cls-1" d="M173.66,32.22a29.2,29.2,0,0,1,10.42-6.4,35.6,35.6,0,0,1,12.15-2.14,32.5,32.5,0,0,1,10.83,1.58,16.09,16.09,0,0,1,7.16,4.88,20.84,20.84,0,0,1,4,8.33,49.66,49.66,0,0,1,1.27,11.94V75.93H204.26V70.54H204a12.56,12.56,0,0,1-5.85,4.88,20.82,20.82,0,0,1-8.49,1.73,25.6,25.6,0,0,1-6.3-.82,18.3,18.3,0,0,1-5.94-2.64A14.31,14.31,0,0,1,173,68.81a15.07,15.07,0,0,1-1.72-7.52,12.79,12.79,0,0,1,3-8.84A19.68,19.68,0,0,1,182,47.26a40.66,40.66,0,0,1,10.52-2.43,106.83,106.83,0,0,1,11.28-.62V43.4a6.22,6.22,0,0,0-2.64-5.54,11.43,11.43,0,0,0-6.51-1.78,16.14,16.14,0,0,0-6.86,1.53,21.61,21.61,0,0,0-5.64,3.66Zm30.6,21.65h-2.13c-1.83,0-3.68.09-5.54.26a22.35,22.35,0,0,0-5,1A9.1,9.1,0,0,0,188,57.18a4.76,4.76,0,0,0-1.43,3.6,4.29,4.29,0,0,0,.67,2.44,5,5,0,0,0,1.67,1.63,7.32,7.32,0,0,0,2.34.86,13.44,13.44,0,0,0,2.54.26q5.09,0,7.78-2.8a10.46,10.46,0,0,0,2.69-7.57Z"/><path class="cls-1" d="M260.63,39.05a17.88,17.88,0,0,0-2.54-.41c-.71-.06-1.41-.1-2.08-.1a12,12,0,0,0-5.65,1.22,11.52,11.52,0,0,0-3.65,2.93,11.18,11.18,0,0,0-2,3.76,12.76,12.76,0,0,0-.61,3.54V76H227.44V25.39H243.5v7.32h.21a16.36,16.36,0,0,1,5.49-6.35,14.1,14.1,0,0,1,8.23-2.46,18.19,18.19,0,0,1,2,.11,3.93,3.93,0,0,1,1.22.3Z"/><path class="cls-1" d="M268.92,25.3V12h16.37V25.3h11.89V37.7H285.29V57.09a8.66,8.66,0,0,0,1.37,5.35q1.36,1.79,4.93,1.79a18.45,18.45,0,0,0,2.59-.2,9.21,9.21,0,0,0,2.29-.61l.2,12.19a26.59,26.59,0,0,1-4.37,1.07,31.41,31.41,0,0,1-5.29.46,24.9,24.9,0,0,1-8.54-1.28,13.19,13.19,0,0,1-5.53-3.66,14.41,14.41,0,0,1-3-5.71A27.73,27.73,0,0,1,269,59.1V37.7Z"/><path class="cls-1" d="M44.3,9.15a8.78,8.78,0,0,1-.76,3.61,9.34,9.34,0,0,1-2,2.89,9.08,9.08,0,0,1-3,1.93,9.76,9.76,0,0,1-3.71.71,9.32,9.32,0,0,1-6.81-2.69,8.7,8.7,0,0,1-2.74-6.45,8.81,8.81,0,0,1,.71-3.51,8.32,8.32,0,0,1,2-2.9A11.13,11.13,0,0,1,31,.76,9.22,9.22,0,0,1,34.74,0a10,10,0,0,1,3.71.71,9.4,9.4,0,0,1,3,1.93,9.26,9.26,0,0,1,2,2.9A8.75,8.75,0,0,1,44.3,9.15Z"/><path class="cls-1" d="M50.58,31.53V47.22a22.17,22.17,0,1,1-31.67.86V32a35.16,35.16,0,1,0,31.67-.43Z"/><rect class="cls-1" x="26.41" y="25.31" width="16.67" height="50.62"/></g></g></svg>